#!OML:ASF E:\Mandelcareful walks\Project 1\Capture day 1\Session 1\Subject1.ASF
:FULLY-SPECIFIED
:DEGREES
326
root -13.1881 13.1546 2.34012 -164.421 35.8259 176.336
lowerback 21.5171 4.89737 -2.35634
upperback 3.4734 6.39435 -10.7202
thorax -7.07978 3.62565 -12.5212
lowerneck -1.62245 21.1515 23.9399
upperneck 15.8184 34.0792 -19.5747
head 13.0638 15.9766 -4.60128
rclavicle 9.62118e-014 -7.07673e-014
rhumerus 53.7995 -25.4175 -25.2447
rradius 126.113
rwrist -67.202
rhand -8.98787 -16.7956
rfingers 7.12502
rthumb 16.9581 -46.0753
lclavicle 9.62118e-014 -7.07673e-014
lhumerus 2.77706 -61.1022 54.4007
lradius 87.3391
lwrist 9.29708
lhand -23.5556 -18.5636
lfingers 7.12502
lthumb 2.90652 11.3963
rfemur -38.433 -58.1599 13.6326
rtibia 92.3444
rfoot -31.2212 -9.91431
rtoes -36.9508
lfemur -78.7991 -1.11358 -9.39863
ltibia 75.2836
lfoot -11.0763 -13.2804
ltoes -9.72878
327
root -13.1911 13.1412 2.33124 -164.374 35.9931 176.317
lowerback 21.3942 4.91202 -2.27648
upperback 3.44374 6.43054 -10.7358
thorax -7.03116 3.64037 -12.5792
lowerneck -1.55016 21.1007 23.8425
upperneck 15.7683 34.003 -19.579
head 12.9966 15.9508 -4.62836
rclavicle 1.59028e-015 -1.90833e-014
rhumerus 53.6795 -25.4877 -25.1464
rradius 126.04
rwrist -67.1414
rhand -9.07968 -16.5895
rfingers 7.12502
rthumb 16.8697 -45.8768
lclavicle 1.59028e-015 -1.90833e-014
lhumerus 2.72383 -60.9959 54.5568
lradius 87.0837
lwrist 9.14407
lhand -23.2326 -18.9177
lfingers 7.12502
lthumb 3.21851 11.0378
rfemur -38.5804 -58.2146 13.5878
rtibia 92.4782
rfoot -31.2509 -9.8026
rtoes -37.1593
lfemur -78.9358 -1.05919 -9.42993
ltibia 75.4646
lfoot -11.2592 -13.0904
ltoes -10.424
328
root -13.1948 13.1236 2.32368 -164.429 36.1771 176.108
lowerback 21.2519 4.92892 -2.4237
upperback 3.42781 6.42826 -10.763
thorax -6.98621 3.6444 -12.5032
lowerneck -1.16638 21.099 23.7517
upperneck 15.396 33.9764 -19.693
head 12.7858 15.9723 -4.71465
rclavicle 3.97569e-015 1.66979e-014
rhumerus 53.6572 -25.5686 -25.1487
rradius 125.917
rwrist -67.2065
rhand -8.80513 -16.6338
rfingers 7.12502
rthumb 17.134 -45.8983
lclavicle 3.97569e-015 1.66979e-014
lhumerus 2.54059 -61.0018 54.7281
lradius 87.1628
lwrist 9.25399
lhand -23.4028 -18.1737
lfingers 7.12502
lthumb 3.05409 11.7842
rfemur -38.7451 -58.3217 13.3369
rtibia 92.6658
rfoot -31.2694 -9.58082
rtoes -37.1865
lfemur -79.1144 -1.01131 -9.61963
ltibia 75.6519
lfoot -11.4451 -12.9854
ltoes -10.9766
329
root -13.1967 13.1213 2.32053 -164.529 36.3075 175.927
lowerback 21.1668 4.93702 -2.60493
upperback 3.43444 6.40684 -10.7597
thorax -6.95724 3.63961 -12.3724
lowerneck -0.912665 21.0918 23.8237
upperneck 15.1859 33.9826 -19.8446
head 12.7103 15.9965 -4.79827
rclavicle -5.64548e-014 3.97569e-015
rhumerus 53.6328 -25.5738 -25.2326
rradius 125.829
rwrist -67.4073
rhand -8.70097 -16.6815
rfingers 7.12502
rthumb 17.2343 -45.9373
lclavicle -5.64548e-014 3.97569e-015
lhumerus 2.35318 -60.8673 54.8994
lradius 87.0688
lwrist 9.19318
lhand -23.2587 -18.373
lfingers 7.12502
lthumb 3.19326 11.5828
rfemur -38.7786 -58.2122 13.1206
rtibia 92.7441
rfoot -31.3332 -9.41041
rtoes -37.1177
lfemur -79.124 -0.968478 -9.80208
ltibia 75.7488
lfoot -11.5941 -12.9888
ltoes -11.5156
330
root -13.2002 13.1237 2.31685 -164.599 36.3917 175.9
lowerback 21.1962 4.92448 -2.615
upperback 3.4206 6.37729 -10.7239
thorax -6.99948 3.61978 -12.3225
lowerneck -0.815792 21.0583 24.014
upperneck 15.2069 34.0205 -20.0145
head 12.7874 16.0204 -4.86712
rclavicle -1.35174e-014 1.66979e-014
rhumerus 53.5445 -25.5332 -25.2714
rradius 125.776
rwrist -67.583
rhand -9.19168 -17.0909
rfingers 7.12502
rthumb 16.7619 -46.3873
lclavicle -1.35174e-014 1.66979e-014
lhumerus 2.04589 -60.8572 55.2419
lradius 87.0491
lwrist 9.37442
lhand -23.5509 -18.0842
lfingers 7.12502
lthumb 2.91111 11.8757
rfemur -38.6317 -58.018 12.9281
rtibia 92.7093
rfoot -31.1729 -9.29837
rtoes -36.9019
lfemur -79.0409 -0.928713 -9.86072
ltibia 75.7929
lfoot -11.5018 -12.914
ltoes -10.7496
331
root -13.204 13.1203 2.31273 -164.598 36.4866 175.985
lowerback 21.2224 4.90562 -2.51843
upperback 3.39701 6.35722 -10.673
thorax -7.04025 3.5996 -12.32
lowerneck -0.724083 21.0328 24.168
upperneck 15.3066 34.0719 -20.0767
head 12.8666 16.0522 -4.89425
rclavicle -1.16885e-013 5.08889e-014
rhumerus 53.5543 -25.5781 -25.3153
rradius 125.614
rwrist -67.8404
rhand -9.84147 -17.7804
rfingers 7.12502
rthumb 16.1363 -47.1286
lclavicle -1.16885e-013 5.08889e-014
lhumerus 1.68971 -60.7713 55.6198
lradius 87.0419
lwrist 9.33893
lhand -23.6687 -17.7021
lfingers 7.12502
lthumb 2.7973 12.2593
rfemur -38.5194 -57.807 12.8291
rtibia 92.6413
rfoot -30.9805 -9.2044
rtoes -36.5081
lfemur -78.9957 -0.844601 -9.81767
ltibia 75.8327
lfoot -11.4051 -12.8217
ltoes -10.1569
332
root -13.2055 13.1287 2.30981 -164.586 36.6268 176.112
lowerback 21.2122 4.90716 -2.4456
upperback 3.41908 6.36954 -10.5953
thorax -7.01074 3.60042 -12.2672
lowerneck -0.825835 21.0333 24.1733
upperneck 15.5409 34.0959 -19.9509
head 12.9534 16.0557 -4.83351
rclavicle -3.97569e-015 6.04305e-014
rhumerus 53.6094 -25.6905 -25.3579
rradius 125.372
rwrist -68.0327
rhand -10.1206 -18.0366
rfingers 7.12502
rthumb 15.8675 -47.4065
lclavicle -3.97569e-015 6.04305e-014
lhumerus 1.46972 -60.65 55.8604
lradius 87.1291
lwrist 9.31833
lhand -23.943 -17.0348
lfingers 7.12502
lthumb 2.53244 12.9299
rfemur -38.4634 -57.5117 12.8807
rtibia 92.5279
rfoot -30.8891 -9.22415
rtoes -36.3411
lfemur -78.8449 -0.724433 -9.73588
ltibia 75.8179
lfoot -11.4759 -12.7632
ltoes -10.6971
333
root -13.2069 13.1372 2.30483 -164.657 36.802 176.198
lowerback 21.2492 4.89966 -2.44129
upperback 3.48068 6.36097 -10.5125
thorax -6.97349 3.59623 -12.1659
lowerneck -0.906636 21.0288 24.1856
upperneck 15.5991 34.0827 -19.9849
head 12.9996 16.0401 -4.83856
rclavicle 1.03368e-014 7.79236e-014
rhumerus 53.6554 -25.736 -25.3815
rradius 125.17
rwrist -68.0078
rhand -10.0939 -17.7257
rfingers 7.12502
rthumb 15.8933 -47.0935
lclavicle 1.03368e-014 7.79236e-014
lhumerus 1.13324 -60.4754 56.2052
lradius 87.2183
lwrist 9.47819
lhand -24.4326 -16.5594
lfingers 7.12502
lthumb 2.05954 13.4105
rfemur -38.3206 -57.2171 12.8093
rtibia 92.4537
rfoot -30.8421 -9.33565
rtoes -36.5764
lfemur -78.6141 -0.572905 -9.72914
ltibia 75.8161
lfoot -11.5632 -12.7615
ltoes -10.9464
334
root -13.2132 13.1412 2.29878 -164.772 37.0529 176.092
lowerback 21.268 4.89874 -2.54238
upperback 3.50228 6.33561 -10.4843
thorax -6.97802 3.585 -12.0667
lowerneck -0.783127 21.0025 24.216
upperneck 15.4356 34.0562 -20.1875
head 12.9633 16.0346 -4.92927
rclavicle -1.59028e-014 8.11041e-014
rhumerus 53.6954 -25.7142 -25.3657
rradius 125.082
rwrist -68.1294
rhand -9.97661 -17.3458
rfingers 7.12502
rthumb 16.0062 -46.7045
lclavicle -1.59028e-014 8.11041e-014
lhumerus 0.722854 -60.2238 56.6371
lradius 87.189
lwrist 9.53515
lhand -24.4743 -16.8323
lfingers 7.12502
lthumb 2.01929 13.1379
rfemur -38.3912 -56.947 12.6611
rtibia 92.4613
rfoot -30.9267 -9.43299
rtoes -36.7203
lfemur -78.4792 -0.393568 -9.92586
ltibia 75.8256
lfoot -11.7843 -12.7526
ltoes -11.2888
